<svg width="24" height="24" viewBox="0 0 24 24" fill="none" xmlns="http://www.w3.org/2000/svg">
<path d="M12 9.61875C11.5291 9.61893 11.0688 9.75873 10.6773 10.0205C10.2858 10.2823 9.98074 10.6542 9.80065 11.0894C9.62055 11.5245 9.57352 12.0032 9.66551 12.4651C9.75749 12.927 9.98435 13.3512 10.3174 13.6841C10.6505 14.017 11.0748 14.2438 11.5367 14.3356C11.9986 14.4274 12.4773 14.3802 12.9124 14.1999C13.3474 14.0196 13.7193 13.7144 13.9809 13.3229C14.2425 12.9313 14.3821 12.4709 14.3821 12C14.3817 11.3684 14.1305 10.7629 13.6839 10.3164C13.2372 9.86992 12.6316 9.61899 12 9.61875ZM17.5674 7.78839C17.4462 7.48118 17.2631 7.20215 17.0296 6.96862C16.7961 6.73509 16.517 6.55203 16.2098 6.4308C15.2723 6.06071 13.0402 6.14375 12 6.14375C10.9598 6.14375 8.72991 6.05759 7.78973 6.4308C7.48252 6.55203 7.20349 6.73509 6.96996 6.96862C6.73642 7.20215 6.55337 7.48118 6.43214 7.78839C6.0625 8.72589 6.14509 10.9603 6.14509 11.9996C6.14509 13.0388 6.0625 15.2705 6.43393 16.2112C6.55515 16.5184 6.73821 16.7974 6.97174 17.0309C7.20528 17.2645 7.4843 17.4475 7.79152 17.5688C8.72902 17.9388 10.9612 17.8558 12.0018 17.8558C13.0424 17.8558 15.2714 17.942 16.2116 17.5688C16.5188 17.4475 16.7978 17.2645 17.0314 17.0309C17.2649 16.7974 17.448 16.5184 17.5692 16.2112C17.942 15.2737 17.8562 13.0393 17.8562 12C17.8562 10.9607 17.942 8.72946 17.5692 7.78884L17.5674 7.78839ZM12 15.6607C11.276 15.6607 10.5682 15.446 9.96622 15.0438C9.36421 14.6415 8.89501 14.0698 8.61794 13.4009C8.34087 12.732 8.26838 11.9959 8.40963 11.2858C8.55088 10.5757 8.89952 9.92344 9.41148 9.41148C9.92344 8.89952 10.5757 8.55088 11.2858 8.40963C11.9959 8.26838 12.732 8.34087 13.4009 8.61794C14.0698 8.89501 14.6415 9.36421 15.0438 9.96622C15.446 10.5682 15.6607 11.276 15.6607 12C15.6613 12.4809 15.567 12.9572 15.3833 13.4016C15.1995 13.846 14.9299 14.2498 14.5898 14.5898C14.2498 14.9299 13.846 15.1995 13.4016 15.3833C12.9572 15.567 12.4809 15.6613 12 15.6607ZM15.8116 9.04018C15.6426 9.04027 15.4773 8.99023 15.3368 8.89639C15.1962 8.80256 15.0866 8.66914 15.0219 8.51301C14.9571 8.35689 14.9401 8.18507 14.9731 8.01929C15.006 7.85351 15.0873 7.70122 15.2068 7.58167C15.3263 7.46213 15.4785 7.38071 15.6443 7.3477C15.8101 7.31469 15.9819 7.33159 16.138 7.39625C16.2942 7.46091 16.4277 7.57043 16.5216 7.71095C16.6155 7.85148 16.6656 8.0167 16.6656 8.18571C16.6661 8.29795 16.6444 8.40918 16.6018 8.51301C16.5592 8.61685 16.4965 8.71125 16.4173 8.7908C16.3381 8.87035 16.244 8.93349 16.1404 8.97659C16.0368 9.01969 15.9256 9.04191 15.8134 9.04196L15.8116 9.04018ZM19.8571 2H4.14286C3.57454 2 3.02949 2.22576 2.62763 2.62763C2.22576 3.02949 2 3.57454 2 4.14286L2 19.8571C2 20.4255 2.22576 20.9705 2.62763 21.3724C3.02949 21.7742 3.57454 22 4.14286 22H19.8571C20.4255 22 20.9705 21.7742 21.3724 21.3724C21.7742 20.9705 22 20.4255 22 19.8571V4.14286C22 3.57454 21.7742 3.02949 21.3724 2.62763C20.9705 2.22576 20.4255 2 19.8571 2ZM19.0929 14.9464C19.0353 16.0906 18.7741 17.1045 17.9388 17.9375C17.1036 18.7705 16.0906 19.0371 14.9478 19.0915C13.7688 19.158 10.2339 19.158 9.05491 19.0915C7.91071 19.0339 6.90045 18.7723 6.06384 17.9375C5.22723 17.1027 4.96429 16.0884 4.90982 14.9464C4.8433 13.767 4.8433 10.2317 4.90982 9.05357C4.96741 7.90938 5.22545 6.89554 6.06384 6.0625C6.90223 5.22946 7.91518 4.96607 9.05491 4.91161C10.2339 4.84509 13.7688 4.84509 14.9478 4.91161C16.092 4.9692 17.1054 5.2308 17.9388 6.06563C18.7723 6.90045 19.0384 7.91473 19.0929 9.05893C19.1594 10.2339 19.1594 13.7661 19.0929 14.9464Z" fill="black"/>
</svg>
