<svg width="24" height="24" viewBox="0 0 24 24" fill="none" xmlns="http://www.w3.org/2000/svg">
<path d="M20.0952 2C21.1472 2 22 2.85279 22 3.90476V20.0952C22 21.1472 21.1472 22 20.0952 22H3.90476C2.85279 22 2 21.1472 2 20.0952V3.90476C2 2.85279 2.85279 2 3.90476 2H20.0952ZM6.7619 9.38653V16.2857H8.40625V14.0406H11.4345L12.8715 16.2857H14.7121L13.1272 14.0303C13.7114 13.9393 13.9749 13.751 14.1912 13.4407C14.4074 13.1302 14.5158 12.6331 14.5158 11.9712V11.4541C14.5158 11.0615 14.4759 10.7506 14.407 10.5128C14.338 10.2752 14.2199 10.068 14.0526 9.88225C13.8759 9.70647 13.6788 9.58204 13.4425 9.49907C13.2062 9.42664 12.9105 9.38653 12.5469 9.38653H6.7619ZM12.2818 10.9081C12.5075 10.9082 12.6641 10.9494 12.7431 11.0216C12.822 11.094 12.8714 11.2282 12.8715 11.4243V12.0037C12.8715 12.2106 12.8221 12.3451 12.7431 12.4176C12.6641 12.4898 12.5076 12.5208 12.2818 12.5208H8.40625V10.9081H12.2818ZM15.9751 6.7619C15.2778 6.76199 14.7121 7.34974 14.7121 8.07422C14.7122 8.79858 15.2778 9.38552 15.9751 9.3856C16.6724 9.38558 17.2379 8.79863 17.2381 8.07422C17.2381 7.3497 16.6724 6.76192 15.9751 6.7619Z" fill="black"/>
</svg>
