<svg width="24" height="24" viewBox="0 0 24 24" fill="none" xmlns="http://www.w3.org/2000/svg">
<path d="M12.376 11.2236C12.6784 11.2236 12.8886 11.2759 12.9941 11.3672C13.0997 11.4585 13.165 11.6276 13.165 11.875V12.6055C13.165 12.866 13.0997 13.0357 12.9941 13.127C12.8885 13.2181 12.6781 13.2568 12.376 13.2568L7.19629 13.2559V11.2236H12.376Z" fill="black"/>
<path fill-rule="evenodd" clip-rule="evenodd" d="M20 2C21.1046 2 22 2.89543 22 4V20C22 21.1046 21.1046 22 20 22H4C2.89543 22 2 21.1046 2 20V4C2 2.89543 2.89543 2 4 2H20ZM12.7314 9.30664H5V18H7.19629V15.1719H11.2441L13.165 18H15.625L13.5068 15.1582C14.2876 15.0435 14.6386 14.8061 14.9277 14.415C15.2168 14.0239 15.3623 13.3988 15.3623 12.5645V11.9131C15.3623 11.4182 15.309 11.0263 15.2168 10.7266C15.1246 10.427 14.9668 10.1667 14.7432 9.93262C14.5068 9.71092 14.2437 9.5548 13.9277 9.4502C13.6119 9.35889 13.2174 9.30666 12.7314 9.30664ZM17.3125 6C16.3805 6 15.625 6.74036 15.625 7.65332C15.6251 8.56616 16.3806 9.30566 17.3125 9.30566C18.2444 9.30566 18.9999 8.56616 19 7.65332C19 6.74036 18.2445 6 17.3125 6Z" fill="black"/>
</svg>
