<svg width="24" height="24" viewBox="0 0 24 24" fill="none" xmlns="http://www.w3.org/2000/svg">
<path fill-rule="evenodd" clip-rule="evenodd" d="M20 2C21.1046 2 22 2.89543 22 4V20C22 21.1046 21.1046 22 20 22H4C2.89543 22 2 21.1046 2 20V4C2 2.89543 2.89543 2 4 2H20ZM5.52539 8C5.08877 8 5 8.19797 5 8.41797C5.00042 8.80905 5.52088 10.7457 7.41992 13.3047C8.68558 15.0521 10.4681 16 12.0898 16C13.0642 16 13.1845 15.7901 13.1846 15.4277C13.1846 13.7582 13.0958 13.5997 13.584 13.5996C13.8101 13.5996 14.2007 13.7102 15.1104 14.5527C16.1497 15.5525 16.3212 16 16.9033 16H18.4336C18.8702 16 19.0912 15.79 18.9639 15.375C18.6728 14.5029 16.7073 12.7094 16.6172 12.5879C16.3911 12.308 16.4561 12.1825 16.6172 11.9326C16.6198 11.9301 18.4877 9.40096 18.6807 8.54297C18.7768 8.23057 18.681 8.00014 18.2188 8H16.6875C16.2977 8.00001 16.1186 8.19797 16.0225 8.41797C16.011 8.44472 15.2343 10.2535 14.1406 11.4297C13.7846 11.7722 13.6207 11.8828 13.4258 11.8828C13.3296 11.8828 13.1816 11.7724 13.1816 11.46V8.54297C13.1816 8.16797 13.0723 8 12.75 8H10.3438C10.0994 8 9.9541 8.17539 9.9541 8.33789C9.95451 8.69256 10.5044 8.77576 10.5615 9.77539V11.9453C10.5615 12.42 10.4732 12.5078 10.2783 12.5078C9.75842 12.5074 8.49549 10.672 7.74707 8.57227C7.59636 8.16492 7.44804 8 7.05566 8H5.52539Z" fill="black"/>
</svg>
